<svg id="Group_2931" data-name="Group 2931" xmlns="http://www.w3.org/2000/svg" xmlns:xlink="http://www.w3.org/1999/xlink" width="488.987" height="167.428" viewBox="0 0 488.987 167.428">
  <defs>
    <clipPath id="clip-path">
      <rect id="Rectangle_1600" data-name="Rectangle 1600" width="488.987" height="167.428" fill="none"/>
    </clipPath>
  </defs>
  <g id="Group_2930" data-name="Group 2930" transform="translate(0 0)" clip-path="url(#clip-path)">
    <path id="Path_1549" data-name="Path 1549" d="M83.247,43.653A10.656,10.656,0,0,0,88.5,45.082c2.993,0,4.745-1.527,4.745-3.734,0-2.044-1.212-3.214-4.274-4.348-3.7-1.268-5.99-3.116-5.99-6.2,0-3.408,2.928-5.939,7.336-5.939a10.588,10.588,0,0,1,5.013,1.071l-.808,2.306a9.264,9.264,0,0,0-4.305-1.04c-3.1,0-4.274,1.785-4.274,3.279,0,2.044,1.379,3.051,4.508,4.218,3.837,1.428,5.787,3.214,5.787,6.426,0,3.377-2.591,6.3-7.941,6.3a12.085,12.085,0,0,1-5.787-1.395Z" transform="translate(101.636 30.625)" fill="#111e4d"/>
    <path id="Path_1550" data-name="Path 1550" d="M107.041,46.378a14.974,14.974,0,0,1-5.99,1.04c-6.392,0-11.2-3.895-11.2-11.068,0-6.85,4.812-11.49,11.844-11.49a12.516,12.516,0,0,1,5.383.975l-.707,2.3a11.014,11.014,0,0,0-4.575-.908c-5.316,0-8.849,3.279-8.849,9.023,0,5.352,3.2,8.794,8.715,8.794a12.1,12.1,0,0,0,4.778-.908Z" transform="translate(110.679 30.625)" fill="#111e4d"/>
    <path id="Path_1551" data-name="Path 1551" d="M102.12,25.021v9.153h10.97V25.021h2.959V46.9h-2.959V36.641H102.12V46.9H99.191V25.021Z" transform="translate(122.19 30.823)" fill="#111e4d"/>
    <path id="Path_1552" data-name="Path 1552" d="M129.143,35.929c0,7.528-4.745,11.521-10.532,11.521-5.99,0-10.2-4.479-10.2-11.1,0-6.943,4.475-11.487,10.53-11.487,6.191,0,10.2,4.575,10.2,11.068m-17.6.355c0,4.676,2.625,8.863,7.233,8.863,4.645,0,7.269-4.124,7.269-9.09,0-4.348-2.357-8.892-7.236-8.892-4.845,0-7.267,4.319-7.267,9.119" transform="translate(133.553 30.625)" fill="#111e4d"/>
    <path id="Path_1553" data-name="Path 1553" d="M139.527,35.929c0,7.528-4.743,11.521-10.53,11.521-5.99,0-10.2-4.479-10.2-11.1,0-6.943,4.475-11.487,10.53-11.487,6.191,0,10.2,4.575,10.2,11.068m-17.6.355c0,4.676,2.625,8.863,7.233,8.863,4.645,0,7.269-4.124,7.269-9.09,0-4.348-2.357-8.892-7.236-8.892-4.845,0-7.267,4.319-7.267,9.119" transform="translate(146.348 30.625)" fill="#111e4d"/>
    <path id="Path_1554" data-name="Path 1554" d="M129.79,25.021h2.928v19.5h9.689V46.9H129.79Z" transform="translate(159.883 30.823)" fill="#111e4d"/>
    <path id="Path_1555" data-name="Path 1555" d="M160.223,35.929c0,7.528-4.745,11.521-10.532,11.521-5.99,0-10.2-4.479-10.2-11.1,0-6.943,4.475-11.487,10.53-11.487,6.191,0,10.2,4.575,10.2,11.068m-17.6.355c0,4.676,2.625,8.863,7.234,8.863,4.644,0,7.269-4.124,7.269-9.09,0-4.348-2.357-8.892-7.236-8.892-4.845,0-7.267,4.319-7.267,9.119" transform="translate(171.84 30.625)" fill="#111e4d"/>
    <path id="Path_1556" data-name="Path 1556" d="M150.484,25.021H162.7v2.37h-9.287v7.267h8.579V37h-8.579v9.9h-2.928Z" transform="translate(185.376 30.823)" fill="#111e4d"/>
    <path id="Path_1557" data-name="Path 1557" d="M103,48.036a4.889,4.889,0,0,1-3.243,4.64,5.876,5.876,0,0,1,3.991,5.361c0,5.361-4.167,7.079-9.334,7.079H82.591V41.061H94.418c4.917,0,8.586,2.131,8.586,6.975m-15.781,2.68h7.2c2.957,0,3.919-1.2,3.919-2.576,0-1.1-.926-2.955-3.919-2.955h-7.2Zm0,10.173h7.2c1.924,0,4.667-.618,4.667-2.886,0-2.167-2.743-3.3-4.667-3.3h-7.2Z" transform="translate(101.741 50.581)" fill="#111e4d"/>
    <rect id="Rectangle_1593" data-name="Rectangle 1593" width="4.667" height="24.053" transform="translate(208.835 91.642)" fill="#111e4d"/>
    <path id="Path_1558" data-name="Path 1558" d="M123.092,53.492c-.071,6.22-4.026,12.438-12.789,12.438s-12.824-6.08-12.824-12.4,4.2-12.681,12.824-12.681c8.586,0,12.86,6.359,12.789,12.646m-20.982.1c.107,3.953,2.314,8.18,8.193,8.18s8.086-4.261,8.157-8.213c.071-4.055-2.281-8.59-8.157-8.59s-8.3,4.571-8.193,8.624" transform="translate(120.081 50.316)" fill="#111e4d"/>
    <path id="Path_1559" data-name="Path 1559" d="M117.1,45.186h-7.908V41.061H129.71v4.124H121.8V65.116h-4.7Z" transform="translate(134.51 50.581)" fill="#111e4d"/>
    <path id="Path_1560" data-name="Path 1560" d="M138.3,65.115H119.629V41.062H138.3v4.4h-14v5.533h13.5v4.227H124.3v5.428h14Z" transform="translate(147.366 50.582)" fill="#111e4d"/>
    <path id="Path_1561" data-name="Path 1561" d="M151.99,62.358a13.412,13.412,0,0,1-9.477,3.573c-9.262,0-13.179-6.151-13.215-12.4-.036-6.287,4.2-12.681,13.215-12.681a13.107,13.107,0,0,1,9.155,3.678l-3.134,2.919a8.749,8.749,0,0,0-6.022-2.265c-6.019,0-8.619,4.328-8.584,8.349.036,3.986,2.422,8.142,8.584,8.142a9.36,9.36,0,0,0,6.269-2.437Z" transform="translate(159.278 50.315)" fill="#111e4d"/>
    <path id="Path_1562" data-name="Path 1562" d="M157.618,65.13V55.406H145.363V65.13h-4.7V41.077h4.7V51.215h12.255V41.077h4.667V65.13Z" transform="translate(173.274 50.601)" fill="#111e4d"/>
    <path id="Path_1563" data-name="Path 1563" d="M168.515,41.046h4.7V65.134H170.3v.036l-13.11-16.255V65.134h-4.7V41.082h3.81l12.219,14.911Z" transform="translate(187.842 50.562)" fill="#111e4d"/>
    <path id="Path_1564" data-name="Path 1564" d="M188.981,53.492c-.071,6.22-4.026,12.438-12.789,12.438s-12.824-6.08-12.824-12.4,4.2-12.681,12.824-12.681c8.586,0,12.86,6.359,12.789,12.646m-20.982.1c.107,3.953,2.314,8.18,8.193,8.18s8.086-4.261,8.157-8.213c.071-4.055-2.281-8.59-8.157-8.59s-8.3,4.571-8.193,8.624" transform="translate(201.247 50.316)" fill="#111e4d"/>
    <path id="Path_1565" data-name="Path 1565" d="M181.09,41.062V60.923h12.824v4.191H176.39V41.062Z" transform="translate(217.288 50.582)" fill="#111e4d"/>
    <path id="Path_1566" data-name="Path 1566" d="M210.508,53.492c-.071,6.22-4.026,12.438-12.789,12.438s-12.824-6.08-12.824-12.4,4.2-12.681,12.824-12.681c8.586,0,12.86,6.359,12.789,12.646m-20.982.1c.107,3.953,2.314,8.18,8.193,8.18s8.086-4.261,8.157-8.213c.071-4.055-2.281-8.59-8.157-8.59s-8.3,4.571-8.193,8.624" transform="translate(227.765 50.316)" fill="#111e4d"/>
    <path id="Path_1567" data-name="Path 1567" d="M216.99,47.316a9.759,9.759,0,0,0-6.341-2.406c-5.343,0-8.584,3.919-8.584,8.867,0,3.95,2.386,8.039,8.584,8.039a8.488,8.488,0,0,0,5.629-1.924V55.632H209.9V51.576h10.686V61.713a12.616,12.616,0,0,1-9.939,4.33c-9.369,0-13.181-5.943-13.181-12.266,0-6.771,4.383-13.023,13.181-13.023a13.415,13.415,0,0,1,9.262,3.676Z" transform="translate(243.253 50.203)" fill="#111e4d"/>
    <path id="Path_1568" data-name="Path 1568" d="M220.174,50.991l6.626-9.93h5.664v.208l-9.938,13.916v9.93h-4.7v-9.93L208.24,41.269v-.208h5.593Z" transform="translate(256.523 50.582)" fill="#111e4d"/>
    <path id="Path_1569" data-name="Path 1569" d="M167.428,83.715A83.714,83.714,0,1,1,83.713,0a83.715,83.715,0,0,1,83.715,83.715" transform="translate(0 0)" fill="#298835"/>
    <rect id="Rectangle_1594" data-name="Rectangle 1594" width="29.77" height="3.482" transform="translate(60.875 45.307)" fill="#fff"/>
    <rect id="Rectangle_1595" data-name="Rectangle 1595" width="29.77" height="3.482" transform="translate(60.875 31.607)" fill="#fff"/>
    <path id="Path_1570" data-name="Path 1570" d="M29.521,30.2H54.786a14.837,14.837,0,0,0,1.48-2.145c.254-.451.478-.9.676-1.337H27.26a15.21,15.21,0,0,0,1.477,2.506c.234.319.5.647.783.975" transform="translate(33.581 32.914)" fill="#fff"/>
    <rect id="Rectangle_1596" data-name="Rectangle 1596" width="29.77" height="3.482" transform="matrix(1, -0.001, 0.001, 1, 60.872, 114.836)" fill="#fff"/>
    <rect id="Rectangle_1597" data-name="Rectangle 1597" width="29.77" height="3.482" transform="translate(60.872 128.537) rotate(-0.073)" fill="#fff"/>
    <path id="Path_1571" data-name="Path 1571" d="M56.265,47.171a15.2,15.2,0,0,0-1.48-2.145H29.521c-.286.328-.549.656-.783.975a15.211,15.211,0,0,0-1.477,2.506H56.939c-.2-.44-.422-.886-.674-1.337" transform="translate(33.581 55.465)" fill="#fff"/>
    <path id="Path_1572" data-name="Path 1572" d="M42.228,40.247a37.093,37.093,0,0,1-5.769,1.089,16.177,16.177,0,0,1,8.651,6.506,18.212,18.212,0,0,1,2.866,7.387l.033.362v7.733l-.045,26.742,13.44.013-.094-24.957H56.59Z" transform="translate(44.912 49.578)" fill="#fff"/>
    <path id="Path_1573" data-name="Path 1573" d="M45.215,44.307A31.93,31.93,0,0,1,29.351,37.69a23.729,23.729,0,0,0-3.395,4.4C22.6,47.666,20.7,55.386,20.171,65.671h13.11l0-5.082a21.717,21.717,0,0,1,2.3-8.184,15.668,15.668,0,0,1,9.628-8.1" transform="translate(24.848 46.428)" fill="#fff"/>
    <rect id="Rectangle_1598" data-name="Rectangle 1598" width="12.954" height="23.167" transform="translate(45.389 116.608)" fill="#fff"/>
    <path id="Path_1574" data-name="Path 1574" d="M76.685,42.125h4.557c.08-.98.15-1.982.2-3.013H68.335l0,5.082a21.7,21.7,0,0,1-2.3,8.184A15.9,15.9,0,0,1,51.252,61.2c-8.133,0-12.543-4.026-14.811-7.405A18.163,18.163,0,0,1,33.576,46.4l-.036-.362V38.309l.045-26.742-13.438-.013.136,36.377a33.918,33.918,0,0,0,4.754,13.255c5.39,8.579,14.172,13.047,26.1,13.282a40.015,40.015,0,0,0,9.878-1.129L59.841,71.3Z" transform="translate(24.818 14.231)" fill="#fff"/>
    <rect id="Rectangle_1599" data-name="Rectangle 1599" width="12.954" height="23.167" transform="translate(92.939 25.669)" fill="#fff"/>
    <path id="Path_1575" data-name="Path 1575" d="M84.813,26.6H54.6L39.486,52.765,54.6,78.935H84.813l15.11-26.171ZM83.3,76.322H56.1L42.5,52.765,56.1,29.21H83.3l13.6,23.555Z" transform="translate(48.641 32.762)" fill="#fff"/>
    <path id="Path_1576" data-name="Path 1576" d="M54.18,41.628l-3.75,7.434c.127-.02.248-.042.373-.065l3.647-7.233Z" transform="translate(62.123 51.279)" fill="#278335"/>
    <path id="Path_1577" data-name="Path 1577" d="M59.145,32.41c-.056-.112-.109-.223-.165-.33l-3.763,7.445.263.132Z" transform="translate(68.02 39.518)" fill="#278335"/>
    <path id="Path_1578" data-name="Path 1578" d="M53.845,39.044l3.991-7.894-.17.029-3.944,7.8Z" transform="translate(66.178 38.372)" fill="#278335"/>
    <path id="Path_1579" data-name="Path 1579" d="M48.816,48.825l.078.134,4.06-8.026-.118-.06Z" transform="translate(60.135 50.349)" fill="#278335"/>
    <path id="Path_1580" data-name="Path 1580" d="M70.875,30.323,70.4,29.7l-.783.058c-.234.018-.46.042-.692.065l0,0,0,0c-14.014,1.317-19.8,10.628-20.053,11.041-7.492,12.664,2.047,25.026,2.455,25.546l.449.569.723-.016c8.566-.183,13.965-3.845,16.987-6.885a21.138,21.138,0,0,0,4.562-6.667C79.39,41.7,71.226,30.783,70.875,30.323M65.9,43.919l-3.27-1.654L57.142,53.11l3.265,1.652,3.142-6.2.127.42,2.971,9.769a20.417,20.417,0,0,1-10.394,4.948c-.125.02-.246.045-.373.065l3.75-7.434.377-.748-3.214-1.625-.377.745-4.06,8.028c-.025-.042-.051-.089-.078-.134a23.018,23.018,0,0,1-3.3-12.478L59.707,46.6l2.372-4.573-.295.094L49.746,45.924c.083-.263.176-.527.275-.792a17.727,17.727,0,0,1,1.335-2.781c.049-.08,4.7-7.555,15.817-9.383.058-.009.114-.02.17-.029l-3.991,7.894-.375.741L66.19,43.2l.375-.741,3.765-7.443c.054.107.109.216.163.328,1.846,3.758,3.937,10.271.895,16.9l-.042.1A14.182,14.182,0,0,1,70.087,54.7c-.158.248-.33.5-.522.774Z" transform="translate(56.671 36.583)" fill="#fff"/>
    <path id="Path_1581" data-name="Path 1581" d="M21.151,20.539V12.727h1.761a2.238,2.238,0,0,1,1.259.368,1.7,1.7,0,0,1,.685.964,2.68,2.68,0,0,1,.114.828,1.838,1.838,0,0,1-.417,1.259,1.2,1.2,0,0,1-.413.306,1.368,1.368,0,0,1,.667.591,2.3,2.3,0,0,1,.268.772,3.1,3.1,0,0,1,.045.542,2.61,2.61,0,0,1-.281,1.259,1.666,1.666,0,0,1-.616.647,1.7,1.7,0,0,1-.893.275Zm1.27-4.622h.491a.723.723,0,0,0,.737-.536,1.563,1.563,0,0,0,.069-.493,1.024,1.024,0,0,0-.239-.734.74.74,0,0,0-.567-.23h-.491Zm0,3.457h.491a.837.837,0,0,0,.83-.616,1.373,1.373,0,0,0,.08-.487,1.472,1.472,0,0,0-.25-.953.8.8,0,0,0-.661-.275h-.491Z" transform="translate(26.055 15.677)" fill="#298835"/>
    <path id="Path_1582" data-name="Path 1582" d="M24.471,13.913H23.219V12.73h3.676v1.183H25.649v6.622H24.471Z" transform="translate(28.602 15.681)" fill="#298835"/>
  </g>
</svg>
